<svg width="231" height="115" viewBox="0 0 231 115" fill="none" xmlns="http://www.w3.org/2000/svg">
<path d="M90.8035 35.0303C89.8892 23.2224 80.4705 20.6842 74.9848 20.6842H64.4715C59.9001 20.6842 59.8089 20.7816 59.8089 25.5636V84.5056C59.8089 86.849 59.6265 88.9955 61.8199 89.1902C64.654 89.3849 69.1342 89.4823 69.9573 88.6038C70.3221 88.2143 70.5979 87.0438 70.5979 85.2867V69.9648C70.5979 66.8424 70.1397 64.5013 73.2474 64.1095C73.7056 64.0122 75.076 63.9148 77.1804 63.9148C78.8265 63.8174 80.1057 63.6227 81.0199 63.231C86.7793 60.8898 90.6189 55.424 90.8947 48.8872V42.3482C90.8947 37.7609 90.8947 35.3223 90.8035 35.0303ZM80.5617 47.1302C80.0144 51.0337 76.7221 53.4722 73.2474 52.8881C71.6034 52.596 70.7803 51.6202 70.6891 50.0578V42.3482H70.5979C70.5979 34.2491 69.5903 32.003 74.4375 32.3947C81.2024 32.9788 81.3848 40.4938 80.5617 47.1302Z" fill="#FF0079"/>
<path d="M126.642 79.7235C126.368 77.4797 124.54 77.7718 121.797 77.6744H112.836C109.82 77.5771 108.997 76.6012 108.814 73.4788C108.721 70.4539 108.721 67.8183 108.906 65.4771C109.088 61.2792 110.002 60.7925 113.477 60.7925C116.129 60.7925 118.231 60.7925 119.601 60.6951C120.883 60.5977 121.615 59.9139 121.615 58.5486C121.797 56.4995 121.797 54.4481 121.706 52.399C121.615 50.0578 121.065 49.374 118.872 49.374C118.231 49.2767 117.134 49.2767 115.671 49.2767C112.836 49.2767 110.825 49.374 109.729 48.3008C109.271 47.7166 108.906 46.7408 108.906 45.4705C108.721 42.3482 108.721 39.1285 108.814 35.8091C108.997 32.7841 109.82 31.8083 112.836 31.7109H121.888C124.54 31.7109 126.46 31.9056 126.642 29.5644C126.824 27.3206 126.916 22.4412 126.093 21.5627C125.637 21.171 124.449 20.8789 122.344 20.8789H102.597C98.1167 20.8789 98.0255 21.0736 98.0255 25.953V82.7485C98.0255 86.3599 97.9343 87.6279 98.7573 88.409C99.5782 89.1902 101.133 89.1902 102.414 89.1902H122.253C124.173 89.1902 126.368 89.3849 126.551 87.0437C126.824 84.7003 126.824 82.2617 126.642 79.7235Z" fill="#FF0079"/>
<path d="M165.04 25.4662C165.04 20.8789 164.858 20.8789 160.562 20.8789H138.619C136.515 20.8789 135.418 20.6842 134.686 21.368C134.413 21.6601 134.139 22.2465 134.139 23.0254C134.048 25.2715 134.048 27.5153 134.139 29.5644C134.23 31.5162 134.869 32.003 136.697 32.1026C137.064 32.2 137.796 32.2 138.802 32.2C140.63 32.2 142.459 32.2 143.373 33.2732C144.196 34.2491 144.196 35.517 144.196 38.8341V83.824C144.196 86.7517 143.829 89.0928 146.207 89.1902C148.401 89.2876 150.688 89.2876 153.063 89.1902C155.259 88.9955 154.983 86.7517 154.983 83.2376V39.81C154.983 36.0061 154.892 34.3465 155.991 33.2732C157.088 32.1026 159.007 32.2 160.836 32.2C162.482 32.2 163.761 32.2 164.493 31.5162C164.767 31.1268 164.949 30.5403 164.949 29.6618C165.04 28.8806 165.04 27.418 165.04 25.4662Z" fill="#FF0079"/>
<path d="M198.321 78.4556H194.388C190.001 78.4556 188.081 78.4556 186.8 78.1635C183.143 77.577 184.789 74.7468 185.521 72.795C186.435 70.1618 197.315 41.0802 199.053 36.3956C200.423 32.8815 201.064 29.2724 200.881 25.4662C200.697 21.0736 200.332 20.6842 196.216 20.6842H176.011C173.909 20.6842 171.624 20.3921 171.44 23.0254C171.348 25.2715 171.348 27.6127 171.44 29.9538C171.531 32.4921 173.726 32.2 175.646 32.2H182.502C185.063 32.2 188.446 32.003 187.349 35.7117L172.171 76.4065C171.44 78.3582 171.257 82.067 171.531 87.4332C171.624 89.3849 173.818 89.1902 175.737 89.1902H195.578C198.503 89.1902 199.509 89.1902 200.149 88.5064C200.514 88.2143 200.697 87.6279 200.788 86.849C200.881 84.8973 200.881 82.9455 200.788 81.0911C200.697 79.1394 200.058 78.5529 198.321 78.4556Z" fill="#FF0079"/>
<mask id="mask0_72_3" style="mask-type:luminance" maskUnits="userSpaceOnUse" x="52" y="31" width="35" height="25">
<path d="M52.2598 31.5604H86.1731V55.2967H52.2598V31.5604Z" fill="white"/>
</mask>
<g mask="url(#mask0_72_3)">
<mask id="mask1_72_3" style="mask-type:luminance" maskUnits="userSpaceOnUse" x="52" y="25" width="38" height="36">
<path d="M89.1808 36.3355L81.4061 60.7787L52.188 50.1901L59.9627 25.7469L89.1808 36.3355Z" fill="white"/>
</mask>
<g mask="url(#mask1_72_3)">
<mask id="mask2_72_3" style="mask-type:luminance" maskUnits="userSpaceOnUse" x="52" y="25" width="38" height="36">
<path d="M89.1808 36.3355L81.4061 60.7787L52.188 50.1901L59.9627 25.7469L89.1808 36.3355Z" fill="white"/>
</mask>
<g mask="url(#mask2_72_3)">
<path d="M68.1306 33.9897C68.8147 34.1056 69.603 34.2609 70.298 34.2447C70.9994 34.2238 71.7052 33.3036 72.2981 32.9141C73.2732 32.2836 74.3742 31.8363 75.5079 31.8154C76.6437 31.7922 77.8164 32.2164 78.5874 33.1089C79.0934 33.6837 79.4061 34.4232 79.936 34.9656C80.809 35.8673 82.1316 36.1269 82.9959 37.0309C84.1947 38.2849 84.16 40.3201 84.7702 41.9868C84.9874 42.5802 85.2871 43.1365 85.4847 43.7438C86.0624 45.5148 85.5781 47.6218 84.2946 48.9037C83.7473 49.4554 83.0784 49.8517 82.5507 50.4382C81.9079 51.1475 81.5257 52.0816 80.9502 52.8559C79.443 54.9026 76.5394 55.605 74.3482 54.4529C73.8856 54.2096 73.4513 53.8943 72.9648 53.7042C71.7465 53.2406 70.4087 53.6579 69.1122 53.6208C66.8753 53.5675 64.8687 52.179 62.6926 51.632C61.0356 51.2101 59.3113 51.1614 57.6152 51.0849C54.2317 50.9296 52.4987 49.6756 52.4053 49.5458L56.3404 37.17C56.5467 36.9915 56.7747 36.8408 57.0353 36.7481C57.9518 36.4213 59.0529 36.8061 59.9932 36.8292C61.205 36.864 62.3734 37.163 63.4397 36.5047C64.2584 35.9971 64.7058 35.6424 65.4659 35.0305C66.2412 34.4394 67.1968 33.8298 68.1306 33.9897Z" fill="#03A1C2"/>
</g>
</g>
</g>
<mask id="mask3_72_3" style="mask-type:luminance" maskUnits="userSpaceOnUse" x="64" y="33" width="21" height="22">
<path d="M64.4912 33.3407H84.5057V54.1099H64.4912V33.3407Z" fill="white"/>
</mask>
<g mask="url(#mask3_72_3)">
<mask id="mask4_72_3" style="mask-type:luminance" maskUnits="userSpaceOnUse" x="52" y="25" width="38" height="36">
<path d="M89.1813 36.3355L81.4066 60.7788L52.1885 50.1902L59.9632 25.7469L89.1813 36.3355Z" fill="white"/>
</mask>
<g mask="url(#mask4_72_3)">
<mask id="mask5_72_3" style="mask-type:luminance" maskUnits="userSpaceOnUse" x="52" y="25" width="38" height="36">
<path d="M89.1813 36.3355L81.4066 60.7788L52.1885 50.1902L59.9632 25.7469L89.1813 36.3355Z" fill="white"/>
</mask>
<g mask="url(#mask5_72_3)">
<path d="M76.8306 47.2023C76.3789 47.7076 75.8273 48.0831 75.2757 48.461C73.7859 49.4832 72.2917 50.4962 70.7998 51.5161C70.3481 51.8197 69.8811 52.1396 69.3512 52.2022C68.5673 52.2949 66.3825 51.9379 65.7744 50.0186C65.5746 49.3951 65.5269 48.7322 65.566 48.0646C65.6572 46.6622 65.7744 45.2459 65.5638 43.8621C65.3488 42.4504 64.795 41.1152 64.6734 39.6943C64.5518 38.2757 65.0209 36.6369 66.2457 36.069C67.1904 35.6285 68.3132 35.967 69.2057 36.5233C70.0961 37.0819 70.8541 37.8584 71.7597 38.3916C72.8955 39.0777 74.2028 39.3605 75.4103 39.8797C78.3095 41.1315 79.1435 44.6247 76.8306 47.2023ZM83.7583 44.7012C83.3088 44.1518 82.6855 43.7601 82.0058 43.6673C81.3282 43.5723 80.6072 43.7925 80.1229 44.3048C79.643 44.8171 79.4258 45.626 79.6364 46.3145C79.8189 46.8963 80.2771 47.3599 80.8026 47.5894C81.326 47.8281 81.9254 47.8675 82.4966 47.798C82.894 47.7424 83.3001 47.6357 83.6237 47.3877C84.4837 46.7317 84.4012 45.4754 83.7583 44.7012ZM79.0913 49.7544C78.7287 49.4925 78.3486 49.2514 77.9338 49.1355C77.5212 49.0219 77.0499 49.0428 76.6525 49.2978C76.2095 49.5782 75.9098 50.0951 75.7013 50.6306C75.5623 50.9853 75.4494 51.3793 75.4581 51.7595C75.4668 52.4572 75.8902 53.0506 76.4201 53.3264C77.1998 53.7321 78.783 53.6394 79.504 52.8698C80.4248 51.8754 79.9101 50.3339 79.0913 49.7544ZM83.0243 38.8227C82.9374 38.4681 82.7268 38.1783 82.4987 37.9442C81.9493 37.3879 81.237 37.0541 80.4878 36.9962C79.9904 36.9591 79.4193 37.0773 79.0523 37.5409C78.7004 37.979 78.6114 38.6466 78.7091 39.2122C78.8525 40.035 79.3585 40.691 79.9948 40.9785C80.6311 41.2636 81.3955 41.1894 82.0688 40.8348C82.692 40.4963 83.2198 39.6294 83.0243 38.8227ZM76.7003 34.9772C76.4853 34.5136 76.0119 34.2447 75.5515 34.0708C75.0281 33.8692 74.4656 33.7394 73.914 33.8089C73.3646 33.8785 72.8129 34.1728 72.5176 34.6782C72.1918 35.2345 72.207 35.9762 72.5089 36.5465C72.8108 37.1144 73.3667 37.4945 73.9618 37.6498C74.5612 37.7912 75.191 37.7101 75.7686 37.4783C76.0271 37.374 76.2833 37.2395 76.4723 37.0263C76.8415 36.5951 76.9305 35.4871 76.7003 34.9772Z" fill="#FFE61A"/>
</g>
</g>
</g>
<path d="M29.9065 82.418C29.0574 83.2872 28.6665 84.3674 28.6665 85.6214C28.6665 85.691 28.6665 87.3275 28.6991 90.568C28.6991 91.2287 28.6339 91.9959 29.4157 92.1002C29.6785 92.1002 30.0694 92.135 30.5581 92.135H49.6148C50.7897 92.135 51.1828 92.135 51.4434 91.8568C51.5411 91.7502 51.6388 91.5068 51.6388 91.1591V91.02C51.6388 84.7151 52.1926 83.3915 49.1261 81.1987C48.2444 80.6053 47.2346 80.2924 46.0597 80.2924H34.0827C32.6147 80.2924 31.5375 80.7096 29.9065 82.418ZM35.1599 84.4022H45.9945C47.2672 84.4022 48.1141 86.0387 47.6581 87.3622C47.3975 88.0252 46.7438 87.9904 45.9598 87.9904H33.985C32.7775 88.0252 32.4844 87.6056 32.5821 86.2821C32.6472 85.1694 33.201 84.5412 34.2782 84.4369C34.4411 84.4022 34.7364 84.4022 35.1599 84.4022Z" fill="#FFE61A"/>
<path d="M45.4708 53.057L34.6709 53.0918C32.94 53.0918 31.081 53.5438 29.8084 55.0064C28.5032 56.4714 28.1427 58.2122 28.5358 60.9637C28.6009 61.4157 28.7638 61.7982 29.057 62.2177C30.4274 64.2367 32.0583 65.2126 33.9846 65.143H46.2222C47.2668 65.143 48.1137 64.9692 48.8326 64.5519C52.7481 62.322 53.0088 56.541 48.8651 53.7895C48.572 53.6133 48.3092 53.4742 48.016 53.4395C46.6782 53.1613 45.8291 53.057 45.4708 53.057ZM46.8085 57.6536C48.1137 58.2818 48.0812 60.3007 46.7434 60.8594C46.4828 60.9985 45.9941 61.0332 45.3405 61.0332H34.7034C34.1801 61.0332 33.8543 61.0332 33.6589 60.9985C31.9932 60.7551 31.7977 58.1775 33.3982 57.6188C33.724 57.5145 34.0823 57.445 34.5384 57.445H45.5685C46.0919 57.445 46.5154 57.5145 46.8085 57.6536Z" fill="#FFE61A"/>
<path d="M49.6795 24.846C49.4189 24.8808 35.7458 27.3541 30.3296 28.33C29.8084 28.4343 29.2199 28.5733 28.9918 28.8167C28.8941 28.9558 28.829 29.234 28.7964 29.584V32.7527C28.7964 33.8676 28.9918 34.1458 30.069 34.3544C31.8628 34.6674 45.5033 37.1407 49.9423 37.9774C50.887 38.1165 51.5732 38.3599 51.6058 37.384C51.6384 36.6539 51.6384 35.7475 51.6058 34.6674C51.6058 34.1806 51.3778 33.9024 50.887 33.7981C49.3863 33.5199 48.5068 33.3438 48.244 33.309C46.5805 33.1004 46.5153 32.8222 46.5153 31.0119C46.5153 31.0119 46.5153 30.9076 46.5479 30.7314C46.5805 29.5145 48.1463 29.4449 48.472 29.4078C48.7348 29.3383 49.1257 29.3035 49.6144 29.234C50.6589 29.0949 51.1498 29.0601 51.4104 28.7472C51.5407 28.6081 51.6058 28.3995 51.6384 28.0495C51.6384 27.7713 51.7361 25.298 51.4429 24.9851C51.2149 24.7069 50.6264 24.6722 49.6795 24.846ZM42.502 30.3142C42.9255 30.3837 42.9581 32.3355 42.4694 32.3355C42.3717 32.3355 42.2088 32.3354 42.0438 32.3007C40.6734 32.1964 39.6614 31.9854 39.0425 31.742C38.8145 31.603 38.6842 31.2205 39.0425 31.0119C39.2379 30.9076 39.4008 30.838 39.5311 30.8033C39.6289 30.8033 41.3597 30.4185 41.9461 30.3489C42.2414 30.3142 42.4369 30.3142 42.502 30.3142Z" fill="#FFE61A"/>
</svg>
