<svg width="16" height="19" viewBox="0 0 16 19" fill="none" xmlns="http://www.w3.org/2000/svg">
<g clip-path="url(#clip0_72_67)">
<path d="M10.8571 4.57143C10.8571 3.81367 10.5561 3.08694 10.0203 2.55112C9.48449 2.01531 8.75776 1.71429 8 1.71429C7.24224 1.71429 6.51551 2.01531 5.9797 2.55112C5.44388 3.08694 5.14286 3.81367 5.14286 4.57143C5.14286 5.32919 5.44388 6.05592 5.9797 6.59173C6.51551 7.12755 7.24224 7.42857 8 7.42857C8.75776 7.42857 9.48449 7.12755 10.0203 6.59173C10.5561 6.05592 10.8571 5.32919 10.8571 4.57143ZM3.42857 4.57143C3.42857 3.35901 3.9102 2.19625 4.76751 1.33894C5.62482 0.481631 6.78758 0 8 0C9.21242 0 10.3752 0.481631 11.2325 1.33894C12.0898 2.19625 12.5714 3.35901 12.5714 4.57143C12.5714 5.78385 12.0898 6.94661 11.2325 7.80392C10.3752 8.66123 9.21242 9.14286 8 9.14286C6.78758 9.14286 5.62482 8.66123 4.76751 7.80392C3.9102 6.94661 3.42857 5.78385 3.42857 4.57143ZM1.76071 16.5714H14.2393C13.9214 14.3107 11.9786 12.5714 9.63214 12.5714H6.36786C4.02143 12.5714 2.07857 14.3107 1.76071 16.5714ZM0 17.225C0 13.7071 2.85 10.8571 6.36786 10.8571H9.63214C13.15 10.8571 16 13.7071 16 17.225C16 17.8107 15.525 18.2857 14.9393 18.2857H1.06071C0.475 18.2857 0 17.8107 0 17.225Z" fill="#FFE61A"/>
</g>
<defs>
<clipPath id="clip0_72_67">
<rect width="16" height="18.2857" fill="white"/>
</clipPath>
</defs>
</svg>
